<svg width="130" height="18" viewBox="0 0 130 18" fill="none" xmlns="http://www.w3.org/2000/svg">
<g clip-path="url(#clip0_2375_222)">
<path d="M26.4452 0.171448C23.7739 0.171448 21.4589 1.28573 19.8561 3.08573C21.1918 4.54288 21.9931 6.42859 22.0822 8.48573C22.2602 6.25716 24.1301 4.45716 26.5342 4.45716C28.9383 4.45716 30.9863 6.42859 30.9863 8.82859H35.3493C35.2603 4.02859 31.3424 0.171448 26.4452 0.171448Z" fill="#ACD03A"/>
<path d="M8.81508 9.17145C8.72604 11.2286 7.92467 13.1143 6.58905 14.6572C8.19179 16.4572 10.5959 17.5714 13.1781 17.5714V13.2857C10.863 13.2 8.99316 11.4 8.81508 9.17145Z" fill="#ACD03A"/>
<path d="M0 0.171448V4.45716C2.31507 4.45716 4.27397 6.25716 4.45205 8.48573C4.45205 6.42859 5.34247 4.54288 6.58904 3.08573C4.9863 1.28573 2.67123 0.171448 0 0.171448Z" fill="#ACD03A"/>
<path d="M30.8973 16.3714V17.5714H35.2603V8.82855C35.2603 12.0857 33.4795 14.8286 30.8973 16.3714Z" fill="#ACD03A"/>
<path d="M35.2603 9.51431C35.2603 9.42859 35.2603 9.42859 35.2603 9.34288C35.2603 9.17145 35.2603 9.00002 35.2603 8.82859C35.2603 4.02859 31.3425 0.171448 26.4452 0.171448V4.45716C28.8493 4.45716 30.8973 6.42859 30.8973 8.82859C30.8973 11.2286 28.9384 13.2 26.4452 13.2C23.9521 13.2 21.9932 11.2286 21.9932 8.82859C21.9932 8.74288 21.9932 8.57145 21.9932 8.48573C21.9041 6.42859 21.1027 4.54288 19.7671 3.08573C18.1644 1.28573 15.7603 0.171448 13.1781 0.171448C10.5068 0.171448 8.19178 1.28573 6.58904 3.08573C5.34247 4.54288 4.5411 6.42859 4.45205 8.48573C4.45205 8.57145 4.45205 8.74288 4.45205 8.82859C4.45205 8.9143 4.45205 9.00002 4.45205 9.08573C4.27397 11.3143 2.40411 13.1143 0 13.1143V17.4C2.67123 17.4 4.9863 16.2857 6.58904 14.4857C7.92466 13.0286 8.72603 11.1429 8.81507 9.00002C8.81507 8.9143 8.81507 8.82859 8.81507 8.74288C8.81507 8.65716 8.81507 8.57145 8.81507 8.48573C8.99315 6.25716 10.863 4.37145 13.2671 4.37145C15.5822 4.37145 17.5411 6.17145 17.7192 8.40002C17.7192 8.48573 17.7192 8.65716 17.7192 8.74288C17.7192 13.5429 21.637 17.4 26.5342 17.4C30.9863 17.4 34.637 14.1429 35.2603 9.94288V9.85716C35.1712 9.85716 35.1712 9.68573 35.2603 9.51431Z" fill="#299DD8"/>
<path d="M53.1575 6.94288V10.6286H44.5205V13.8857H53.6918V17.5714H39.9794V0.428589H53.5137V4.1143H44.5205V6.94288H53.1575Z" fill="#3A3837"/>
<path d="M62.5959 13.7143L60.3699 17.5714H55.2055L60.0137 9.85716L62.5959 13.7143ZM60.9041 9.08573L55.2945 0.428589H60.2808L63.4863 5.22859L66.6918 0.428589H71.6781L66.0685 9.08573L71.6781 17.5714H66.5137L63.4863 12.9429" fill="#3A3837"/>
<path d="M73.1918 9C73.1918 7.71429 73.4589 6.51429 73.9041 5.4C74.4384 4.28571 75.0616 3.34286 75.9521 2.57143C76.8425 1.8 77.8219 1.2 78.9794 0.685714C80.137 0.257143 81.3836 0 82.7192 0C84.0548 0 85.3904 0.257143 86.5479 0.685714C87.7055 1.11429 88.6849 1.71429 89.5753 2.57143C90.4657 3.34286 91.089 4.28571 91.5342 5.4C91.9794 6.51429 92.2466 7.71429 92.2466 9C92.2466 10.2857 91.9794 11.4857 91.5342 12.6C91.089 13.7143 90.3767 14.6571 89.5753 15.4286C88.6849 16.2 87.7055 16.8857 86.5479 17.3143C85.3904 17.7429 84.1438 18 82.7192 18C81.3836 18 80.0479 17.7429 78.8904 17.3143C77.7329 16.8857 76.7534 16.2857 75.863 15.4286C74.9726 14.6571 74.3493 13.7143 73.8151 12.6C73.4589 11.4857 73.1918 10.2857 73.1918 9ZM77.7329 9C77.7329 9.77143 77.8219 10.5429 78.089 11.1429C78.3562 11.8286 78.6233 12.3429 79.0685 12.8571C79.5137 13.3714 80.0479 13.7143 80.6712 13.9714C81.2945 14.2286 82.0068 14.4 82.7192 14.4C83.4315 14.4 84.1438 14.2286 84.7671 13.9714C85.3904 13.7143 85.9247 13.3714 86.3699 12.8571C86.8151 12.4286 87.1712 11.8286 87.3493 11.1429C87.6164 10.4571 87.7055 9.77143 87.7055 9C87.7055 8.22857 87.6164 7.54286 87.3493 6.85714C87.0822 6.17143 86.8151 5.65714 86.3699 5.14286C85.9247 4.62857 85.3904 4.28571 84.7671 4.02857C84.1438 3.77143 83.4315 3.6 82.7192 3.6C82.0068 3.6 81.2945 3.77143 80.6712 4.02857C80.0479 4.28571 79.5137 4.62857 79.0685 5.14286C78.6233 5.65714 78.2671 6.17143 78.089 6.85714C77.8219 7.54286 77.7329 8.22857 77.7329 9Z" fill="#3A3837"/>
<path d="M99.5411 6.6V17.1429H95V0H99.5411V6.6ZM100.342 0.771429L106.13 10.3714V0H110.671V17.1429H106.041L100.253 7.37143V0.771429H100.342Z" fill="#3A3837"/>
<path d="M121.274 5.40002L117.089 17.5714H112.548L118.425 0.428589H124.123L130 17.5714H125.459L121.274 5.40002ZM128.486 11.2286L118.959 14.3143L120.384 10.2857L129.644 7.1143L128.486 11.2286Z" fill="#3A3837"/>
</g>
<defs>
<clipPath id="clip0_2375_222">
<rect width="130" height="18" fill="white"/>
</clipPath>
</defs>
</svg>
